<mxfile host="app.diagrams.net" modified="2022-10-14T01:53:45.832Z" agent="5.0 (Macintosh; Intel Mac OS X 10_15_7) AppleWebKit/537.36 (KHTML, like Gecko) Chrome/106.0.0.0 Safari/537.36" etag="wYpV3KgeAYJwdR1udWnW" version="20.4.0" type="github">
  <diagram id="ADD6Pf1-iYHw3PYcDzVL" name="第 1 页">
    <mxGraphModel dx="1913" dy="-569" grid="1" gridSize="10" guides="1" tooltips="1" connect="1" arrows="1" fold="1" page="1" pageScale="1" pageWidth="827" pageHeight="1169" math="0" shadow="0">
      <root>
        <mxCell id="0" />
        <mxCell id="1" parent="0" />
        <mxCell id="jL-DoHjZgoJ6Cv4gA63--1" value="&lt;font style=&quot;font-size: 11px;&quot;&gt;He&lt;/font&gt;" style="rounded=0;whiteSpace=wrap;html=1;fontFamily=Times New Roman;fontSize=11;strokeColor=none;spacingBottom=-10;spacing=-10;spacingTop=-10;" vertex="1" parent="1">
          <mxGeometry x="-791" y="1360" width="50" height="12" as="geometry" />
        </mxCell>
        <mxCell id="jL-DoHjZgoJ6Cv4gA63--2" style="edgeStyle=orthogonalEdgeStyle;rounded=0;orthogonalLoop=1;jettySize=auto;html=1;entryX=0.365;entryY=0.995;entryDx=0;entryDy=0;entryPerimeter=0;fontFamily=Times New Roman;endArrow=blockThin;endFill=1;" edge="1" parent="1">
          <mxGeometry relative="1" as="geometry">
            <mxPoint x="-696" y="1367" as="sourcePoint" />
            <mxPoint x="-696.0999999999999" y="1346.7600000000002" as="targetPoint" />
          </mxGeometry>
        </mxCell>
        <mxCell id="jL-DoHjZgoJ6Cv4gA63--3" style="edgeStyle=orthogonalEdgeStyle;rounded=0;orthogonalLoop=1;jettySize=auto;html=1;entryX=0.634;entryY=1.003;entryDx=0;entryDy=0;entryPerimeter=0;exitX=0.502;exitY=0.053;exitDx=0;exitDy=0;exitPerimeter=0;fontFamily=Times New Roman;endArrow=blockThin;endFill=1;" edge="1" parent="1" source="jL-DoHjZgoJ6Cv4gA63--28">
          <mxGeometry relative="1" as="geometry">
            <mxPoint x="-626" y="1367" as="sourcePoint" />
            <mxPoint x="-626.1600000000003" y="1347.1440000000002" as="targetPoint" />
          </mxGeometry>
        </mxCell>
        <mxCell id="jL-DoHjZgoJ6Cv4gA63--4" style="edgeStyle=orthogonalEdgeStyle;rounded=0;orthogonalLoop=1;jettySize=auto;html=1;entryX=0.904;entryY=0.983;entryDx=0;entryDy=0;entryPerimeter=0;fontFamily=Times New Roman;endArrow=blockThin;endFill=1;" edge="1" parent="1">
          <mxGeometry relative="1" as="geometry">
            <mxPoint x="-556" y="1368" as="sourcePoint" />
            <mxPoint x="-555.9600000000005" y="1347.1840000000002" as="targetPoint" />
          </mxGeometry>
        </mxCell>
        <mxCell id="jL-DoHjZgoJ6Cv4gA63--5" style="edgeStyle=orthogonalEdgeStyle;rounded=0;orthogonalLoop=1;jettySize=auto;html=1;exitX=0.5;exitY=0;exitDx=0;exitDy=0;entryX=0.5;entryY=1;entryDx=0;entryDy=0;strokeWidth=1;fontSize=18;fontFamily=Times New Roman;" edge="1" parent="1" source="jL-DoHjZgoJ6Cv4gA63--6" target="jL-DoHjZgoJ6Cv4gA63--17">
          <mxGeometry relative="1" as="geometry">
            <mxPoint x="-695" y="1181" as="targetPoint" />
          </mxGeometry>
        </mxCell>
        <mxCell id="jL-DoHjZgoJ6Cv4gA63--6" value="&lt;b style=&quot;&quot;&gt;&lt;font style=&quot;font-size: 15px;&quot;&gt;h&lt;/font&gt;&lt;/b&gt;&lt;font style=&quot;font-size: 12px;&quot;&gt;&lt;sub&gt;[MASK]&lt;/sub&gt;&lt;/font&gt;" style="rounded=0;whiteSpace=wrap;html=1;fontSize=11;fillColor=#d5e8d4;strokeColor=#82b366;fontFamily=Times New Roman;strokeWidth=0.5;" vertex="1" parent="1">
          <mxGeometry x="-723.5" y="1231" width="53" height="20" as="geometry" />
        </mxCell>
        <mxCell id="jL-DoHjZgoJ6Cv4gA63--7" value="" style="shape=table;startSize=0;container=1;collapsible=0;childLayout=tableLayout;rounded=0;fillStyle=auto;strokeColor=#82b366;strokeWidth=0.5;fontSize=11;fillColor=#d5e8d4;fontFamily=Times New Roman;" vertex="1" parent="1">
          <mxGeometry x="-811" y="1187" width="70" height="70" as="geometry" />
        </mxCell>
        <mxCell id="jL-DoHjZgoJ6Cv4gA63--8" value="" style="shape=tableRow;horizontal=0;startSize=0;swimlaneHead=0;swimlaneBody=0;top=0;left=0;bottom=0;right=0;collapsible=0;dropTarget=0;fillColor=none;points=[[0,0.5],[1,0.5]];portConstraint=eastwest;rounded=0;fillStyle=auto;strokeColor=#000000;strokeWidth=1;fontSize=11;fontFamily=Times New Roman;" vertex="1" parent="jL-DoHjZgoJ6Cv4gA63--7">
          <mxGeometry width="70" height="19" as="geometry" />
        </mxCell>
        <mxCell id="jL-DoHjZgoJ6Cv4gA63--9" value="&lt;font style=&quot;font-size: 11px;&quot;&gt;pool&lt;/font&gt;" style="shape=partialRectangle;html=1;whiteSpace=wrap;connectable=0;overflow=hidden;fillColor=none;top=0;left=0;bottom=0;right=0;pointerEvents=1;rounded=0;fillStyle=auto;strokeColor=#000000;strokeWidth=1;fontSize=11;fontFamily=Times New Roman;" vertex="1" parent="jL-DoHjZgoJ6Cv4gA63--8">
          <mxGeometry width="70" height="19" as="geometry">
            <mxRectangle width="70" height="19" as="alternateBounds" />
          </mxGeometry>
        </mxCell>
        <mxCell id="jL-DoHjZgoJ6Cv4gA63--10" style="shape=tableRow;horizontal=0;startSize=0;swimlaneHead=0;swimlaneBody=0;top=0;left=0;bottom=0;right=0;collapsible=0;dropTarget=0;fillColor=none;points=[[0,0.5],[1,0.5]];portConstraint=eastwest;rounded=0;fillStyle=auto;strokeColor=#000000;strokeWidth=1;fontSize=11;fontFamily=Times New Roman;" vertex="1" parent="jL-DoHjZgoJ6Cv4gA63--7">
          <mxGeometry y="19" width="70" height="18" as="geometry" />
        </mxCell>
        <mxCell id="jL-DoHjZgoJ6Cv4gA63--11" value="poor" style="shape=partialRectangle;html=1;whiteSpace=wrap;connectable=0;overflow=hidden;fillColor=none;top=0;left=0;bottom=0;right=0;pointerEvents=1;rounded=0;fillStyle=auto;strokeColor=#000000;strokeWidth=1;fontSize=11;fontFamily=Times New Roman;" vertex="1" parent="jL-DoHjZgoJ6Cv4gA63--10">
          <mxGeometry width="70" height="18" as="geometry">
            <mxRectangle width="70" height="18" as="alternateBounds" />
          </mxGeometry>
        </mxCell>
        <mxCell id="jL-DoHjZgoJ6Cv4gA63--12" value="" style="shape=tableRow;horizontal=0;startSize=0;swimlaneHead=0;swimlaneBody=0;top=0;left=0;bottom=0;right=0;collapsible=0;dropTarget=0;fillColor=none;points=[[0,0.5],[1,0.5]];portConstraint=eastwest;rounded=0;fillStyle=auto;strokeColor=#000000;strokeWidth=1;fontSize=11;fontFamily=Times New Roman;" vertex="1" parent="jL-DoHjZgoJ6Cv4gA63--7">
          <mxGeometry y="37" width="70" height="17" as="geometry" />
        </mxCell>
        <mxCell id="jL-DoHjZgoJ6Cv4gA63--13" value="beauty" style="shape=partialRectangle;html=1;whiteSpace=wrap;connectable=0;overflow=hidden;fillColor=none;top=0;left=0;bottom=0;right=0;pointerEvents=1;rounded=0;fillStyle=auto;strokeColor=#000000;strokeWidth=0.5;fontSize=11;fontFamily=Times New Roman;verticalAlign=bottom;" vertex="1" parent="jL-DoHjZgoJ6Cv4gA63--12">
          <mxGeometry width="70" height="17" as="geometry">
            <mxRectangle width="70" height="17" as="alternateBounds" />
          </mxGeometry>
        </mxCell>
        <mxCell id="jL-DoHjZgoJ6Cv4gA63--14" value="" style="shape=tableRow;horizontal=0;startSize=0;swimlaneHead=0;swimlaneBody=0;top=0;left=0;bottom=0;right=0;collapsible=0;dropTarget=0;fillColor=none;points=[[0,0.5],[1,0.5]];portConstraint=eastwest;rounded=0;fillStyle=auto;strokeColor=#000000;strokeWidth=1;fontSize=11;fontFamily=Times New Roman;" vertex="1" parent="jL-DoHjZgoJ6Cv4gA63--7">
          <mxGeometry y="54" width="70" height="16" as="geometry" />
        </mxCell>
        <mxCell id="jL-DoHjZgoJ6Cv4gA63--15" value="..." style="shape=partialRectangle;html=1;whiteSpace=wrap;connectable=0;overflow=hidden;fillColor=none;top=0;left=0;bottom=0;right=0;pointerEvents=1;rounded=0;fillStyle=auto;strokeColor=#000000;strokeWidth=1;fontSize=11;fontFamily=Times New Roman;" vertex="1" parent="jL-DoHjZgoJ6Cv4gA63--14">
          <mxGeometry width="70" height="16" as="geometry">
            <mxRectangle width="70" height="16" as="alternateBounds" />
          </mxGeometry>
        </mxCell>
        <mxCell id="jL-DoHjZgoJ6Cv4gA63--16" style="edgeStyle=orthogonalEdgeStyle;rounded=0;orthogonalLoop=1;jettySize=auto;html=1;strokeColor=#000000;strokeWidth=1;fontFamily=Times New Roman;fontSize=12;fontColor=#EA6B66;exitX=1;exitY=0.5;exitDx=0;exitDy=0;entryX=-0.003;entryY=0.256;entryDx=0;entryDy=0;entryPerimeter=0;" edge="1" parent="1" source="jL-DoHjZgoJ6Cv4gA63--17" target="jL-DoHjZgoJ6Cv4gA63--127">
          <mxGeometry relative="1" as="geometry">
            <mxPoint x="-651.72" y="1193.0819999999999" as="targetPoint" />
            <mxPoint x="-679.5189701897019" y="1197.5121951219512" as="sourcePoint" />
          </mxGeometry>
        </mxCell>
        <mxCell id="jL-DoHjZgoJ6Cv4gA63--17" value="Gen" style="triangle;whiteSpace=wrap;html=1;rounded=0;labelBackgroundColor=none;fillStyle=auto;strokeColor=#d6b656;strokeWidth=0.5;fontSize=11;fillColor=#fff2cc;align=left;fontFamily=Times New Roman;" vertex="1" parent="1">
          <mxGeometry x="-714.5" y="1174" width="35" height="45" as="geometry" />
        </mxCell>
        <mxCell id="jL-DoHjZgoJ6Cv4gA63--18" style="edgeStyle=orthogonalEdgeStyle;rounded=0;orthogonalLoop=1;jettySize=auto;html=1;entryX=0;entryY=0.5;entryDx=0;entryDy=0;strokeColor=#000000;strokeWidth=1;fontFamily=Times New Roman;fontSize=12;fontColor=#EA6B66;" edge="1" parent="1" source="jL-DoHjZgoJ6Cv4gA63--8" target="jL-DoHjZgoJ6Cv4gA63--17">
          <mxGeometry relative="1" as="geometry" />
        </mxCell>
        <mxCell id="jL-DoHjZgoJ6Cv4gA63--19" style="edgeStyle=orthogonalEdgeStyle;rounded=0;orthogonalLoop=1;jettySize=auto;html=1;exitX=0.5;exitY=0;exitDx=0;exitDy=0;entryX=0.5;entryY=1;entryDx=0;entryDy=0;strokeWidth=1;fontSize=18;fontFamily=Times New Roman;" edge="1" parent="1" source="jL-DoHjZgoJ6Cv4gA63--20" target="jL-DoHjZgoJ6Cv4gA63--23">
          <mxGeometry relative="1" as="geometry">
            <mxPoint x="-372.25" y="1177.13" as="targetPoint" />
          </mxGeometry>
        </mxCell>
        <mxCell id="jL-DoHjZgoJ6Cv4gA63--20" value="&lt;font style=&quot;font-size: 15px;&quot;&gt;&lt;b&gt;h&lt;/b&gt;&lt;sub style=&quot;&quot;&gt;pool&lt;/sub&gt;&lt;/font&gt;" style="rounded=0;whiteSpace=wrap;html=1;fontSize=11;fillColor=#dae8fc;strokeColor=#6c8ebf;fontFamily=Times New Roman;strokeWidth=0.5;" vertex="1" parent="1">
          <mxGeometry x="-398.75" y="1229.13" width="53" height="20" as="geometry" />
        </mxCell>
        <mxCell id="jL-DoHjZgoJ6Cv4gA63--21" style="edgeStyle=orthogonalEdgeStyle;rounded=0;orthogonalLoop=1;jettySize=auto;html=1;entryX=0.297;entryY=0.993;entryDx=0;entryDy=0;entryPerimeter=0;strokeColor=#000000;strokeWidth=1;fontFamily=Times New Roman;fontSize=12;fontColor=#EA6B66;exitX=0.5;exitY=0;exitDx=0;exitDy=0;" edge="1" parent="1">
          <mxGeometry relative="1" as="geometry">
            <mxPoint x="-371.25" y="1272.88" as="sourcePoint" />
            <mxPoint x="-371.35000000000036" y="1248.884" as="targetPoint" />
          </mxGeometry>
        </mxCell>
        <mxCell id="jL-DoHjZgoJ6Cv4gA63--22" style="edgeStyle=orthogonalEdgeStyle;rounded=0;orthogonalLoop=1;jettySize=auto;html=1;strokeColor=#000000;strokeWidth=1;fontFamily=Times New Roman;fontSize=11;fontColor=#000000;" edge="1" parent="1" source="jL-DoHjZgoJ6Cv4gA63--23" target="jL-DoHjZgoJ6Cv4gA63--24">
          <mxGeometry relative="1" as="geometry" />
        </mxCell>
        <mxCell id="jL-DoHjZgoJ6Cv4gA63--23" value="Dis" style="triangle;whiteSpace=wrap;html=1;rounded=0;labelBackgroundColor=none;fillStyle=auto;strokeColor=#d6b656;strokeWidth=0.5;fontSize=11;fillColor=#fff2cc;align=left;fontFamily=Times New Roman;" vertex="1" parent="1">
          <mxGeometry x="-389.75" y="1174.13" width="35" height="45" as="geometry" />
        </mxCell>
        <mxCell id="jL-DoHjZgoJ6Cv4gA63--24" value="0.01" style="text;html=1;align=left;verticalAlign=middle;resizable=0;points=[];autosize=1;strokeColor=none;fillColor=none;fontSize=11;fontFamily=Times New Roman;fontColor=#000000;" vertex="1" parent="1">
          <mxGeometry x="-327.25" y="1181.63" width="40" height="30" as="geometry" />
        </mxCell>
        <mxCell id="jL-DoHjZgoJ6Cv4gA63--25" value="&lt;span style=&quot;font-size: 11px;&quot;&gt;☹️&lt;/span&gt;" style="text;html=1;align=center;verticalAlign=middle;resizable=0;points=[];autosize=1;strokeColor=none;fillColor=none;fontSize=18;fontColor=#999999;fontFamily=Times New Roman;" vertex="1" parent="1">
          <mxGeometry x="-313.25" y="1174.63" width="40" height="40" as="geometry" />
        </mxCell>
        <mxCell id="jL-DoHjZgoJ6Cv4gA63--26" value="" style="group;fontFamily=Times New Roman;" vertex="1" connectable="0" parent="1">
          <mxGeometry x="-792" y="1350.82" width="260" height="75" as="geometry" />
        </mxCell>
        <mxCell id="jL-DoHjZgoJ6Cv4gA63--27" value="&lt;font color=&quot;#ff0000&quot; style=&quot;font-size: 11px;&quot;&gt;[MASK]&lt;/font&gt;" style="rounded=0;whiteSpace=wrap;html=1;fontFamily=Times New Roman;fontSize=11;strokeColor=none;spacingBottom=-10;spacing=-10;spacingTop=-10;fontStyle=1" vertex="1" parent="1">
          <mxGeometry x="-720.5" y="1360" width="50" height="12" as="geometry" />
        </mxCell>
        <mxCell id="jL-DoHjZgoJ6Cv4gA63--28" value="&lt;font style=&quot;font-size: 11px;&quot;&gt;village&lt;/font&gt;" style="rounded=0;whiteSpace=wrap;html=1;fontFamily=Times New Roman;fontSize=11;strokeColor=none;spacingBottom=-10;spacing=-10;spacingTop=-10;fillColor=none;" vertex="1" parent="1">
          <mxGeometry x="-651" y="1360" width="50" height="12" as="geometry" />
        </mxCell>
        <mxCell id="jL-DoHjZgoJ6Cv4gA63--29" value="&lt;font style=&quot;font-size: 11px;&quot;&gt;.&lt;/font&gt;" style="rounded=0;whiteSpace=wrap;html=1;fontFamily=Times New Roman;fontSize=11;strokeColor=none;spacingBottom=-10;spacing=-10;spacingTop=-10;" vertex="1" parent="1">
          <mxGeometry x="-581" y="1360" width="50" height="12" as="geometry" />
        </mxCell>
        <mxCell id="jL-DoHjZgoJ6Cv4gA63--30" value="" style="group;fontFamily=Times New Roman;" vertex="1" connectable="0" parent="1">
          <mxGeometry x="-792" y="1272" width="260" height="94" as="geometry" />
        </mxCell>
        <mxCell id="jL-DoHjZgoJ6Cv4gA63--31" value="" style="group;fontFamily=Times New Roman;" vertex="1" connectable="0" parent="jL-DoHjZgoJ6Cv4gA63--30">
          <mxGeometry x="57.5" y="7.380000000000109" width="201.38" height="67.61999999999989" as="geometry" />
        </mxCell>
        <mxCell id="jL-DoHjZgoJ6Cv4gA63--32" value="" style="group;rotation=-90;fontFamily=Times New Roman;" vertex="1" connectable="0" parent="jL-DoHjZgoJ6Cv4gA63--31">
          <mxGeometry x="25.25" y="-25" width="60" height="110.5" as="geometry" />
        </mxCell>
        <mxCell id="jL-DoHjZgoJ6Cv4gA63--33" value="" style="rounded=0;whiteSpace=wrap;html=1;fontFamily=Times New Roman;fontSize=2;strokeColor=#808080;rotation=-90;" vertex="1" parent="jL-DoHjZgoJ6Cv4gA63--32">
          <mxGeometry x="-25" y="65" width="20" height="20.5" as="geometry" />
        </mxCell>
        <mxCell id="jL-DoHjZgoJ6Cv4gA63--34" style="edgeStyle=none;rounded=0;orthogonalLoop=1;jettySize=auto;html=1;exitX=1;exitY=0.5;exitDx=0;exitDy=0;fontFamily=Times New Roman;fontSize=2;endArrow=none;endFill=0;strokeColor=#808080;" edge="1" parent="jL-DoHjZgoJ6Cv4gA63--32" source="jL-DoHjZgoJ6Cv4gA63--35">
          <mxGeometry relative="1" as="geometry">
            <mxPoint x="45" y="45" as="targetPoint" />
          </mxGeometry>
        </mxCell>
        <mxCell id="jL-DoHjZgoJ6Cv4gA63--35" value="" style="rounded=0;whiteSpace=wrap;html=1;fontFamily=Times New Roman;fontSize=2;strokeColor=#808080;rotation=-90;" vertex="1" parent="jL-DoHjZgoJ6Cv4gA63--32">
          <mxGeometry x="5" y="65" width="20" height="20" as="geometry" />
        </mxCell>
        <mxCell id="jL-DoHjZgoJ6Cv4gA63--36" value="" style="rounded=0;whiteSpace=wrap;html=1;fontFamily=Times New Roman;fontSize=2;strokeColor=#808080;rotation=-90;" vertex="1" parent="jL-DoHjZgoJ6Cv4gA63--32">
          <mxGeometry x="35" y="65" width="20" height="20" as="geometry" />
        </mxCell>
        <mxCell id="jL-DoHjZgoJ6Cv4gA63--37" value="" style="rounded=0;whiteSpace=wrap;html=1;fontFamily=Times New Roman;fontSize=2;strokeColor=#808080;rotation=-90;" vertex="1" parent="jL-DoHjZgoJ6Cv4gA63--32">
          <mxGeometry x="65" y="65" width="20" height="20" as="geometry" />
        </mxCell>
        <mxCell id="jL-DoHjZgoJ6Cv4gA63--38" value="" style="rounded=0;whiteSpace=wrap;html=1;fontFamily=Times New Roman;fontSize=2;strokeColor=#808080;rotation=-90;" vertex="1" parent="jL-DoHjZgoJ6Cv4gA63--32">
          <mxGeometry x="-25" y="25" width="20" height="20" as="geometry" />
        </mxCell>
        <mxCell id="jL-DoHjZgoJ6Cv4gA63--39" style="edgeStyle=orthogonalEdgeStyle;rounded=0;orthogonalLoop=1;jettySize=auto;html=1;entryX=0;entryY=0.5;entryDx=0;entryDy=0;fontFamily=Times New Roman;fontSize=2;endArrow=none;endFill=0;strokeColor=#808080;" edge="1" parent="jL-DoHjZgoJ6Cv4gA63--32" source="jL-DoHjZgoJ6Cv4gA63--33" target="jL-DoHjZgoJ6Cv4gA63--38">
          <mxGeometry relative="1" as="geometry" />
        </mxCell>
        <mxCell id="jL-DoHjZgoJ6Cv4gA63--40" style="edgeStyle=none;rounded=0;orthogonalLoop=1;jettySize=auto;html=1;exitX=1;exitY=0.5;exitDx=0;exitDy=0;entryX=0;entryY=0.5;entryDx=0;entryDy=0;fontFamily=Times New Roman;fontSize=2;endArrow=none;endFill=0;strokeColor=#808080;" edge="1" parent="jL-DoHjZgoJ6Cv4gA63--32" source="jL-DoHjZgoJ6Cv4gA63--35" target="jL-DoHjZgoJ6Cv4gA63--38">
          <mxGeometry relative="1" as="geometry" />
        </mxCell>
        <mxCell id="jL-DoHjZgoJ6Cv4gA63--41" style="edgeStyle=none;rounded=0;orthogonalLoop=1;jettySize=auto;html=1;exitX=1;exitY=0.5;exitDx=0;exitDy=0;entryX=0;entryY=0.5;entryDx=0;entryDy=0;fontFamily=Times New Roman;fontSize=2;endArrow=none;endFill=0;strokeColor=#808080;" edge="1" parent="jL-DoHjZgoJ6Cv4gA63--32" source="jL-DoHjZgoJ6Cv4gA63--36" target="jL-DoHjZgoJ6Cv4gA63--38">
          <mxGeometry relative="1" as="geometry" />
        </mxCell>
        <mxCell id="jL-DoHjZgoJ6Cv4gA63--42" style="edgeStyle=none;rounded=0;orthogonalLoop=1;jettySize=auto;html=1;exitX=1;exitY=0.5;exitDx=0;exitDy=0;entryX=0;entryY=0.5;entryDx=0;entryDy=0;fontFamily=Times New Roman;fontSize=2;endArrow=none;endFill=0;strokeColor=#808080;" edge="1" parent="jL-DoHjZgoJ6Cv4gA63--32" source="jL-DoHjZgoJ6Cv4gA63--37" target="jL-DoHjZgoJ6Cv4gA63--38">
          <mxGeometry relative="1" as="geometry" />
        </mxCell>
        <mxCell id="jL-DoHjZgoJ6Cv4gA63--43" value="" style="rounded=0;whiteSpace=wrap;html=1;fontFamily=Times New Roman;fontSize=2;strokeColor=#808080;rotation=-90;" vertex="1" parent="jL-DoHjZgoJ6Cv4gA63--32">
          <mxGeometry x="5" y="25" width="20" height="20" as="geometry" />
        </mxCell>
        <mxCell id="jL-DoHjZgoJ6Cv4gA63--44" style="edgeStyle=none;rounded=0;orthogonalLoop=1;jettySize=auto;html=1;entryX=0;entryY=0.5;entryDx=0;entryDy=0;fontFamily=Times New Roman;fontSize=2;endArrow=none;endFill=0;exitX=1;exitY=0.5;exitDx=0;exitDy=0;strokeColor=#808080;" edge="1" parent="jL-DoHjZgoJ6Cv4gA63--32" source="jL-DoHjZgoJ6Cv4gA63--33" target="jL-DoHjZgoJ6Cv4gA63--43">
          <mxGeometry relative="1" as="geometry" />
        </mxCell>
        <mxCell id="jL-DoHjZgoJ6Cv4gA63--45" style="edgeStyle=none;rounded=0;orthogonalLoop=1;jettySize=auto;html=1;exitX=1;exitY=0.5;exitDx=0;exitDy=0;entryX=0;entryY=0.5;entryDx=0;entryDy=0;fontFamily=Times New Roman;fontSize=2;endArrow=none;endFill=0;strokeColor=#808080;" edge="1" parent="jL-DoHjZgoJ6Cv4gA63--32" source="jL-DoHjZgoJ6Cv4gA63--35" target="jL-DoHjZgoJ6Cv4gA63--43">
          <mxGeometry relative="1" as="geometry" />
        </mxCell>
        <mxCell id="jL-DoHjZgoJ6Cv4gA63--46" style="edgeStyle=none;rounded=0;orthogonalLoop=1;jettySize=auto;html=1;exitX=1;exitY=0.5;exitDx=0;exitDy=0;entryX=0;entryY=0.5;entryDx=0;entryDy=0;fontFamily=Times New Roman;fontSize=2;endArrow=none;endFill=0;strokeColor=#808080;" edge="1" parent="jL-DoHjZgoJ6Cv4gA63--32" source="jL-DoHjZgoJ6Cv4gA63--36" target="jL-DoHjZgoJ6Cv4gA63--43">
          <mxGeometry relative="1" as="geometry" />
        </mxCell>
        <mxCell id="jL-DoHjZgoJ6Cv4gA63--47" style="edgeStyle=none;rounded=0;orthogonalLoop=1;jettySize=auto;html=1;exitX=1;exitY=0.5;exitDx=0;exitDy=0;entryX=0;entryY=0.5;entryDx=0;entryDy=0;fontFamily=Times New Roman;fontSize=2;endArrow=none;endFill=0;strokeColor=#808080;" edge="1" parent="jL-DoHjZgoJ6Cv4gA63--32" source="jL-DoHjZgoJ6Cv4gA63--37" target="jL-DoHjZgoJ6Cv4gA63--43">
          <mxGeometry relative="1" as="geometry" />
        </mxCell>
        <mxCell id="jL-DoHjZgoJ6Cv4gA63--48" value="" style="rounded=0;whiteSpace=wrap;html=1;fontFamily=Times New Roman;fontSize=2;strokeColor=#808080;rotation=-90;" vertex="1" parent="jL-DoHjZgoJ6Cv4gA63--32">
          <mxGeometry x="35" y="25" width="20" height="20" as="geometry" />
        </mxCell>
        <mxCell id="jL-DoHjZgoJ6Cv4gA63--49" style="edgeStyle=none;rounded=0;orthogonalLoop=1;jettySize=auto;html=1;entryX=0;entryY=0.5;entryDx=0;entryDy=0;fontFamily=Times New Roman;fontSize=2;endArrow=none;endFill=0;exitX=1;exitY=0.5;exitDx=0;exitDy=0;strokeColor=#808080;" edge="1" parent="jL-DoHjZgoJ6Cv4gA63--32" source="jL-DoHjZgoJ6Cv4gA63--33" target="jL-DoHjZgoJ6Cv4gA63--48">
          <mxGeometry relative="1" as="geometry" />
        </mxCell>
        <mxCell id="jL-DoHjZgoJ6Cv4gA63--50" style="edgeStyle=none;rounded=0;orthogonalLoop=1;jettySize=auto;html=1;exitX=1;exitY=0.5;exitDx=0;exitDy=0;entryX=0;entryY=0.5;entryDx=0;entryDy=0;fontFamily=Times New Roman;fontSize=2;endArrow=none;endFill=0;strokeColor=#808080;" edge="1" parent="jL-DoHjZgoJ6Cv4gA63--32" source="jL-DoHjZgoJ6Cv4gA63--36" target="jL-DoHjZgoJ6Cv4gA63--48">
          <mxGeometry relative="1" as="geometry" />
        </mxCell>
        <mxCell id="jL-DoHjZgoJ6Cv4gA63--51" style="edgeStyle=none;rounded=0;orthogonalLoop=1;jettySize=auto;html=1;exitX=1;exitY=0.5;exitDx=0;exitDy=0;entryX=0;entryY=0.5;entryDx=0;entryDy=0;fontFamily=Times New Roman;fontSize=2;endArrow=none;endFill=0;strokeColor=#808080;" edge="1" parent="jL-DoHjZgoJ6Cv4gA63--32" source="jL-DoHjZgoJ6Cv4gA63--37" target="jL-DoHjZgoJ6Cv4gA63--48">
          <mxGeometry relative="1" as="geometry" />
        </mxCell>
        <mxCell id="jL-DoHjZgoJ6Cv4gA63--52" value="" style="rounded=0;whiteSpace=wrap;html=1;fontFamily=Times New Roman;fontSize=2;strokeColor=#808080;rotation=-90;" vertex="1" parent="jL-DoHjZgoJ6Cv4gA63--32">
          <mxGeometry x="65" y="25" width="20" height="20" as="geometry" />
        </mxCell>
        <mxCell id="jL-DoHjZgoJ6Cv4gA63--53" style="edgeStyle=none;rounded=0;orthogonalLoop=1;jettySize=auto;html=1;entryX=0;entryY=0.5;entryDx=0;entryDy=0;fontFamily=Times New Roman;fontSize=2;endArrow=none;endFill=0;exitX=1;exitY=0.5;exitDx=0;exitDy=0;strokeColor=#808080;" edge="1" parent="jL-DoHjZgoJ6Cv4gA63--32" source="jL-DoHjZgoJ6Cv4gA63--33" target="jL-DoHjZgoJ6Cv4gA63--52">
          <mxGeometry relative="1" as="geometry" />
        </mxCell>
        <mxCell id="jL-DoHjZgoJ6Cv4gA63--54" style="edgeStyle=none;rounded=0;orthogonalLoop=1;jettySize=auto;html=1;exitX=1;exitY=0.5;exitDx=0;exitDy=0;entryX=0;entryY=0.5;entryDx=0;entryDy=0;fontFamily=Times New Roman;fontSize=2;endArrow=none;endFill=0;strokeColor=#808080;" edge="1" parent="jL-DoHjZgoJ6Cv4gA63--32" source="jL-DoHjZgoJ6Cv4gA63--35" target="jL-DoHjZgoJ6Cv4gA63--52">
          <mxGeometry relative="1" as="geometry" />
        </mxCell>
        <mxCell id="jL-DoHjZgoJ6Cv4gA63--55" style="edgeStyle=none;rounded=0;orthogonalLoop=1;jettySize=auto;html=1;exitX=1;exitY=0.5;exitDx=0;exitDy=0;entryX=0;entryY=0.5;entryDx=0;entryDy=0;fontFamily=Times New Roman;fontSize=2;endArrow=none;endFill=0;strokeColor=#808080;" edge="1" parent="jL-DoHjZgoJ6Cv4gA63--32" source="jL-DoHjZgoJ6Cv4gA63--36" target="jL-DoHjZgoJ6Cv4gA63--52">
          <mxGeometry relative="1" as="geometry" />
        </mxCell>
        <mxCell id="jL-DoHjZgoJ6Cv4gA63--56" style="edgeStyle=none;rounded=0;orthogonalLoop=1;jettySize=auto;html=1;exitX=1;exitY=0.5;exitDx=0;exitDy=0;entryX=0;entryY=0.5;entryDx=0;entryDy=0;fontFamily=Times New Roman;fontSize=2;endArrow=none;endFill=0;strokeColor=#808080;" edge="1" parent="jL-DoHjZgoJ6Cv4gA63--32" source="jL-DoHjZgoJ6Cv4gA63--37" target="jL-DoHjZgoJ6Cv4gA63--52">
          <mxGeometry relative="1" as="geometry" />
        </mxCell>
        <mxCell id="jL-DoHjZgoJ6Cv4gA63--57" style="edgeStyle=none;rounded=0;orthogonalLoop=1;jettySize=auto;html=1;entryX=1;entryY=0.5;entryDx=0;entryDy=0;fontFamily=Times New Roman;fontSize=2;endArrow=none;endFill=0;strokeColor=#808080;" edge="1" parent="jL-DoHjZgoJ6Cv4gA63--32" source="jL-DoHjZgoJ6Cv4gA63--33" target="jL-DoHjZgoJ6Cv4gA63--33">
          <mxGeometry relative="1" as="geometry" />
        </mxCell>
        <mxCell id="jL-DoHjZgoJ6Cv4gA63--58" style="edgeStyle=none;rounded=0;orthogonalLoop=1;jettySize=auto;html=1;exitX=0;exitY=0.5;exitDx=0;exitDy=0;entryX=1;entryY=0.5;entryDx=0;entryDy=0;strokeColor=#808080;fontSize=1;fontColor=#999999;endArrow=none;endFill=0;fontFamily=Times New Roman;" edge="1" parent="jL-DoHjZgoJ6Cv4gA63--31" source="jL-DoHjZgoJ6Cv4gA63--62" target="jL-DoHjZgoJ6Cv4gA63--37">
          <mxGeometry relative="1" as="geometry" />
        </mxCell>
        <mxCell id="jL-DoHjZgoJ6Cv4gA63--59" style="edgeStyle=none;rounded=0;orthogonalLoop=1;jettySize=auto;html=1;exitX=0;exitY=0.5;exitDx=0;exitDy=0;entryX=1;entryY=0.5;entryDx=0;entryDy=0;strokeColor=#808080;fontSize=1;fontColor=#999999;endArrow=none;endFill=0;fontFamily=Times New Roman;" edge="1" parent="jL-DoHjZgoJ6Cv4gA63--31" source="jL-DoHjZgoJ6Cv4gA63--62" target="jL-DoHjZgoJ6Cv4gA63--36">
          <mxGeometry relative="1" as="geometry" />
        </mxCell>
        <mxCell id="jL-DoHjZgoJ6Cv4gA63--60" style="edgeStyle=none;rounded=0;orthogonalLoop=1;jettySize=auto;html=1;entryX=1;entryY=0.5;entryDx=0;entryDy=0;strokeColor=#808080;fontSize=1;fontColor=#999999;endArrow=none;endFill=0;exitX=0;exitY=0.5;exitDx=0;exitDy=0;fontFamily=Times New Roman;" edge="1" parent="jL-DoHjZgoJ6Cv4gA63--31" source="jL-DoHjZgoJ6Cv4gA63--62" target="jL-DoHjZgoJ6Cv4gA63--35">
          <mxGeometry relative="1" as="geometry" />
        </mxCell>
        <mxCell id="jL-DoHjZgoJ6Cv4gA63--61" style="edgeStyle=none;rounded=0;orthogonalLoop=1;jettySize=auto;html=1;entryX=1;entryY=0.5;entryDx=0;entryDy=0;strokeColor=#808080;fontSize=1;fontColor=#999999;endArrow=none;endFill=0;exitX=0;exitY=0.5;exitDx=0;exitDy=0;fontFamily=Times New Roman;" edge="1" parent="jL-DoHjZgoJ6Cv4gA63--31" source="jL-DoHjZgoJ6Cv4gA63--62" target="jL-DoHjZgoJ6Cv4gA63--33">
          <mxGeometry relative="1" as="geometry" />
        </mxCell>
        <mxCell id="jL-DoHjZgoJ6Cv4gA63--62" value="" style="rounded=0;whiteSpace=wrap;html=1;fontFamily=Times New Roman;fontSize=2;strokeColor=#808080;rotation=-90;" vertex="1" parent="jL-DoHjZgoJ6Cv4gA63--31">
          <mxGeometry x="122.75" width="20" height="20" as="geometry" />
        </mxCell>
        <mxCell id="jL-DoHjZgoJ6Cv4gA63--63" value="" style="rounded=0;whiteSpace=wrap;html=1;fontFamily=Times New Roman;fontSize=2;strokeColor=#808080;rotation=-90;" vertex="1" parent="jL-DoHjZgoJ6Cv4gA63--31">
          <mxGeometry x="122.75" y="40" width="20" height="20" as="geometry" />
        </mxCell>
        <mxCell id="jL-DoHjZgoJ6Cv4gA63--64" style="rounded=0;orthogonalLoop=1;jettySize=auto;html=1;strokeColor=#808080;fontSize=1;fontColor=#999999;entryX=1;entryY=0.5;entryDx=0;entryDy=0;exitX=0;exitY=0.5;exitDx=0;exitDy=0;endArrow=none;endFill=0;fontFamily=Times New Roman;" edge="1" parent="jL-DoHjZgoJ6Cv4gA63--31" source="jL-DoHjZgoJ6Cv4gA63--52" target="jL-DoHjZgoJ6Cv4gA63--63">
          <mxGeometry relative="1" as="geometry">
            <mxPoint x="127.25" y="38" as="targetPoint" />
          </mxGeometry>
        </mxCell>
        <mxCell id="jL-DoHjZgoJ6Cv4gA63--65" style="edgeStyle=none;rounded=0;orthogonalLoop=1;jettySize=auto;html=1;entryX=1;entryY=0.5;entryDx=0;entryDy=0;strokeColor=#808080;fontSize=1;fontColor=#999999;endArrow=none;endFill=0;exitX=0;exitY=0.5;exitDx=0;exitDy=0;fontFamily=Times New Roman;" edge="1" parent="jL-DoHjZgoJ6Cv4gA63--31" source="jL-DoHjZgoJ6Cv4gA63--38" target="jL-DoHjZgoJ6Cv4gA63--63">
          <mxGeometry relative="1" as="geometry">
            <mxPoint x="37.25" y="-2" as="sourcePoint" />
          </mxGeometry>
        </mxCell>
        <mxCell id="jL-DoHjZgoJ6Cv4gA63--66" style="edgeStyle=none;rounded=0;orthogonalLoop=1;jettySize=auto;html=1;entryX=1;entryY=0.5;entryDx=0;entryDy=0;strokeColor=#808080;fontSize=1;fontColor=#999999;endArrow=none;endFill=0;exitX=0;exitY=0.5;exitDx=0;exitDy=0;fontFamily=Times New Roman;" edge="1" parent="jL-DoHjZgoJ6Cv4gA63--31" source="jL-DoHjZgoJ6Cv4gA63--43" target="jL-DoHjZgoJ6Cv4gA63--63">
          <mxGeometry relative="1" as="geometry" />
        </mxCell>
        <mxCell id="jL-DoHjZgoJ6Cv4gA63--67" style="edgeStyle=none;rounded=0;orthogonalLoop=1;jettySize=auto;html=1;entryX=1;entryY=0.5;entryDx=0;entryDy=0;strokeColor=#808080;fontSize=1;fontColor=#999999;endArrow=none;endFill=0;exitX=0;exitY=0.5;exitDx=0;exitDy=0;fontFamily=Times New Roman;" edge="1" parent="jL-DoHjZgoJ6Cv4gA63--31" source="jL-DoHjZgoJ6Cv4gA63--48" target="jL-DoHjZgoJ6Cv4gA63--63">
          <mxGeometry relative="1" as="geometry" />
        </mxCell>
        <mxCell id="jL-DoHjZgoJ6Cv4gA63--68" style="edgeStyle=none;rounded=0;orthogonalLoop=1;jettySize=auto;html=1;entryX=0.93;entryY=0.515;entryDx=0;entryDy=0;entryPerimeter=0;strokeColor=#808080;fontSize=1;fontColor=#999999;endArrow=none;endFill=0;fontFamily=Times New Roman;" edge="1" parent="jL-DoHjZgoJ6Cv4gA63--31" source="jL-DoHjZgoJ6Cv4gA63--62" target="jL-DoHjZgoJ6Cv4gA63--63">
          <mxGeometry relative="1" as="geometry" />
        </mxCell>
        <mxCell id="jL-DoHjZgoJ6Cv4gA63--69" style="edgeStyle=none;rounded=0;orthogonalLoop=1;jettySize=auto;html=1;entryX=1;entryY=0.5;entryDx=0;entryDy=0;strokeColor=#808080;fontSize=1;fontColor=#999999;endArrow=none;endFill=0;exitX=0;exitY=0.5;exitDx=0;exitDy=0;fontFamily=Times New Roman;" edge="1" parent="jL-DoHjZgoJ6Cv4gA63--31" source="jL-DoHjZgoJ6Cv4gA63--52" target="jL-DoHjZgoJ6Cv4gA63--63">
          <mxGeometry relative="1" as="geometry" />
        </mxCell>
        <mxCell id="jL-DoHjZgoJ6Cv4gA63--70" value="Target Encoder" style="rounded=1;whiteSpace=wrap;html=1;fontSize=15;fillColor=#d5e8d4;strokeColor=#82b366;strokeWidth=0.5;fillStyle=auto;fontFamily=Times New Roman;opacity=80;" vertex="1" parent="jL-DoHjZgoJ6Cv4gA63--30">
          <mxGeometry width="260" height="75" as="geometry" />
        </mxCell>
        <mxCell id="jL-DoHjZgoJ6Cv4gA63--71" style="edgeStyle=orthogonalEdgeStyle;rounded=0;orthogonalLoop=1;jettySize=auto;html=1;entryX=0.365;entryY=0.995;entryDx=0;entryDy=0;entryPerimeter=0;fontFamily=Times New Roman;endArrow=blockThin;endFill=1;" edge="1" parent="jL-DoHjZgoJ6Cv4gA63--30">
          <mxGeometry relative="1" as="geometry">
            <mxPoint x="25" y="88" as="sourcePoint" />
            <mxPoint x="25.000000000000114" y="75.00000000000023" as="targetPoint" />
          </mxGeometry>
        </mxCell>
        <mxCell id="jL-DoHjZgoJ6Cv4gA63--72" style="edgeStyle=orthogonalEdgeStyle;rounded=0;orthogonalLoop=1;jettySize=auto;html=1;entryX=0.365;entryY=0.995;entryDx=0;entryDy=0;entryPerimeter=0;fontFamily=Times New Roman;exitX=0.367;exitY=0;exitDx=0;exitDy=0;exitPerimeter=0;" edge="1" parent="1" source="jL-DoHjZgoJ6Cv4gA63--70">
          <mxGeometry relative="1" as="geometry">
            <mxPoint x="-696.5299999999997" y="1270.9900000000007" as="sourcePoint" />
            <mxPoint x="-696.6300000000001" y="1250.75" as="targetPoint" />
          </mxGeometry>
        </mxCell>
        <mxCell id="jL-DoHjZgoJ6Cv4gA63--73" value="" style="group;fontFamily=Times New Roman;" vertex="1" connectable="0" parent="1">
          <mxGeometry x="-475" y="1362.82" width="260" height="75" as="geometry" />
        </mxCell>
        <mxCell id="jL-DoHjZgoJ6Cv4gA63--74" value="" style="group;fontFamily=Times New Roman;" vertex="1" connectable="0" parent="1">
          <mxGeometry x="-467" y="1272" width="260" height="75" as="geometry" />
        </mxCell>
        <mxCell id="jL-DoHjZgoJ6Cv4gA63--75" value="" style="group;fontFamily=Times New Roman;" vertex="1" connectable="0" parent="jL-DoHjZgoJ6Cv4gA63--74">
          <mxGeometry x="57.5" y="7.380000000000109" width="201.38" height="67.61999999999989" as="geometry" />
        </mxCell>
        <mxCell id="jL-DoHjZgoJ6Cv4gA63--76" value="" style="group;rotation=-90;fontFamily=Times New Roman;" vertex="1" connectable="0" parent="jL-DoHjZgoJ6Cv4gA63--75">
          <mxGeometry x="25.25" y="-25" width="60" height="110.5" as="geometry" />
        </mxCell>
        <mxCell id="jL-DoHjZgoJ6Cv4gA63--77" value="" style="rounded=0;whiteSpace=wrap;html=1;fontFamily=Times New Roman;fontSize=2;strokeColor=#808080;rotation=-90;" vertex="1" parent="jL-DoHjZgoJ6Cv4gA63--76">
          <mxGeometry x="-25" y="65" width="20" height="20.5" as="geometry" />
        </mxCell>
        <mxCell id="jL-DoHjZgoJ6Cv4gA63--78" style="edgeStyle=none;rounded=0;orthogonalLoop=1;jettySize=auto;html=1;exitX=1;exitY=0.5;exitDx=0;exitDy=0;fontFamily=Times New Roman;fontSize=2;endArrow=none;endFill=0;strokeColor=#808080;" edge="1" parent="jL-DoHjZgoJ6Cv4gA63--76" source="jL-DoHjZgoJ6Cv4gA63--79">
          <mxGeometry relative="1" as="geometry">
            <mxPoint x="45" y="45" as="targetPoint" />
          </mxGeometry>
        </mxCell>
        <mxCell id="jL-DoHjZgoJ6Cv4gA63--79" value="" style="rounded=0;whiteSpace=wrap;html=1;fontFamily=Times New Roman;fontSize=2;strokeColor=#808080;rotation=-90;" vertex="1" parent="jL-DoHjZgoJ6Cv4gA63--76">
          <mxGeometry x="5" y="65" width="20" height="20" as="geometry" />
        </mxCell>
        <mxCell id="jL-DoHjZgoJ6Cv4gA63--80" value="" style="rounded=0;whiteSpace=wrap;html=1;fontFamily=Times New Roman;fontSize=2;strokeColor=#808080;rotation=-90;" vertex="1" parent="jL-DoHjZgoJ6Cv4gA63--76">
          <mxGeometry x="35" y="65" width="20" height="20" as="geometry" />
        </mxCell>
        <mxCell id="jL-DoHjZgoJ6Cv4gA63--81" value="" style="rounded=0;whiteSpace=wrap;html=1;fontFamily=Times New Roman;fontSize=2;strokeColor=#808080;rotation=-90;" vertex="1" parent="jL-DoHjZgoJ6Cv4gA63--76">
          <mxGeometry x="65" y="65" width="20" height="20" as="geometry" />
        </mxCell>
        <mxCell id="jL-DoHjZgoJ6Cv4gA63--82" value="" style="rounded=0;whiteSpace=wrap;html=1;fontFamily=Times New Roman;fontSize=2;strokeColor=#808080;rotation=-90;" vertex="1" parent="jL-DoHjZgoJ6Cv4gA63--76">
          <mxGeometry x="-25" y="25" width="20" height="20" as="geometry" />
        </mxCell>
        <mxCell id="jL-DoHjZgoJ6Cv4gA63--83" style="edgeStyle=orthogonalEdgeStyle;rounded=0;orthogonalLoop=1;jettySize=auto;html=1;entryX=0;entryY=0.5;entryDx=0;entryDy=0;fontFamily=Times New Roman;fontSize=2;endArrow=none;endFill=0;strokeColor=#808080;" edge="1" parent="jL-DoHjZgoJ6Cv4gA63--76" source="jL-DoHjZgoJ6Cv4gA63--77" target="jL-DoHjZgoJ6Cv4gA63--82">
          <mxGeometry relative="1" as="geometry" />
        </mxCell>
        <mxCell id="jL-DoHjZgoJ6Cv4gA63--84" style="edgeStyle=none;rounded=0;orthogonalLoop=1;jettySize=auto;html=1;exitX=1;exitY=0.5;exitDx=0;exitDy=0;entryX=0;entryY=0.5;entryDx=0;entryDy=0;fontFamily=Times New Roman;fontSize=2;endArrow=none;endFill=0;strokeColor=#808080;" edge="1" parent="jL-DoHjZgoJ6Cv4gA63--76" source="jL-DoHjZgoJ6Cv4gA63--79" target="jL-DoHjZgoJ6Cv4gA63--82">
          <mxGeometry relative="1" as="geometry" />
        </mxCell>
        <mxCell id="jL-DoHjZgoJ6Cv4gA63--85" style="edgeStyle=none;rounded=0;orthogonalLoop=1;jettySize=auto;html=1;exitX=1;exitY=0.5;exitDx=0;exitDy=0;entryX=0;entryY=0.5;entryDx=0;entryDy=0;fontFamily=Times New Roman;fontSize=2;endArrow=none;endFill=0;strokeColor=#808080;" edge="1" parent="jL-DoHjZgoJ6Cv4gA63--76" source="jL-DoHjZgoJ6Cv4gA63--80" target="jL-DoHjZgoJ6Cv4gA63--82">
          <mxGeometry relative="1" as="geometry" />
        </mxCell>
        <mxCell id="jL-DoHjZgoJ6Cv4gA63--86" style="edgeStyle=none;rounded=0;orthogonalLoop=1;jettySize=auto;html=1;exitX=1;exitY=0.5;exitDx=0;exitDy=0;entryX=0;entryY=0.5;entryDx=0;entryDy=0;fontFamily=Times New Roman;fontSize=2;endArrow=none;endFill=0;strokeColor=#808080;" edge="1" parent="jL-DoHjZgoJ6Cv4gA63--76" source="jL-DoHjZgoJ6Cv4gA63--81" target="jL-DoHjZgoJ6Cv4gA63--82">
          <mxGeometry relative="1" as="geometry" />
        </mxCell>
        <mxCell id="jL-DoHjZgoJ6Cv4gA63--87" value="" style="rounded=0;whiteSpace=wrap;html=1;fontFamily=Times New Roman;fontSize=2;strokeColor=#808080;rotation=-90;" vertex="1" parent="jL-DoHjZgoJ6Cv4gA63--76">
          <mxGeometry x="5" y="25" width="20" height="20" as="geometry" />
        </mxCell>
        <mxCell id="jL-DoHjZgoJ6Cv4gA63--88" style="edgeStyle=none;rounded=0;orthogonalLoop=1;jettySize=auto;html=1;entryX=0;entryY=0.5;entryDx=0;entryDy=0;fontFamily=Times New Roman;fontSize=2;endArrow=none;endFill=0;exitX=1;exitY=0.5;exitDx=0;exitDy=0;strokeColor=#808080;" edge="1" parent="jL-DoHjZgoJ6Cv4gA63--76" source="jL-DoHjZgoJ6Cv4gA63--77" target="jL-DoHjZgoJ6Cv4gA63--87">
          <mxGeometry relative="1" as="geometry" />
        </mxCell>
        <mxCell id="jL-DoHjZgoJ6Cv4gA63--89" style="edgeStyle=none;rounded=0;orthogonalLoop=1;jettySize=auto;html=1;exitX=1;exitY=0.5;exitDx=0;exitDy=0;entryX=0;entryY=0.5;entryDx=0;entryDy=0;fontFamily=Times New Roman;fontSize=2;endArrow=none;endFill=0;strokeColor=#808080;" edge="1" parent="jL-DoHjZgoJ6Cv4gA63--76" source="jL-DoHjZgoJ6Cv4gA63--79" target="jL-DoHjZgoJ6Cv4gA63--87">
          <mxGeometry relative="1" as="geometry" />
        </mxCell>
        <mxCell id="jL-DoHjZgoJ6Cv4gA63--90" style="edgeStyle=none;rounded=0;orthogonalLoop=1;jettySize=auto;html=1;exitX=1;exitY=0.5;exitDx=0;exitDy=0;entryX=0;entryY=0.5;entryDx=0;entryDy=0;fontFamily=Times New Roman;fontSize=2;endArrow=none;endFill=0;strokeColor=#808080;" edge="1" parent="jL-DoHjZgoJ6Cv4gA63--76" source="jL-DoHjZgoJ6Cv4gA63--80" target="jL-DoHjZgoJ6Cv4gA63--87">
          <mxGeometry relative="1" as="geometry" />
        </mxCell>
        <mxCell id="jL-DoHjZgoJ6Cv4gA63--91" style="edgeStyle=none;rounded=0;orthogonalLoop=1;jettySize=auto;html=1;exitX=1;exitY=0.5;exitDx=0;exitDy=0;entryX=0;entryY=0.5;entryDx=0;entryDy=0;fontFamily=Times New Roman;fontSize=2;endArrow=none;endFill=0;strokeColor=#808080;" edge="1" parent="jL-DoHjZgoJ6Cv4gA63--76" source="jL-DoHjZgoJ6Cv4gA63--81" target="jL-DoHjZgoJ6Cv4gA63--87">
          <mxGeometry relative="1" as="geometry" />
        </mxCell>
        <mxCell id="jL-DoHjZgoJ6Cv4gA63--92" value="" style="rounded=0;whiteSpace=wrap;html=1;fontFamily=Times New Roman;fontSize=2;strokeColor=#808080;rotation=-90;" vertex="1" parent="jL-DoHjZgoJ6Cv4gA63--76">
          <mxGeometry x="35" y="25" width="20" height="20" as="geometry" />
        </mxCell>
        <mxCell id="jL-DoHjZgoJ6Cv4gA63--93" style="edgeStyle=none;rounded=0;orthogonalLoop=1;jettySize=auto;html=1;entryX=0;entryY=0.5;entryDx=0;entryDy=0;fontFamily=Times New Roman;fontSize=2;endArrow=none;endFill=0;exitX=1;exitY=0.5;exitDx=0;exitDy=0;strokeColor=#808080;" edge="1" parent="jL-DoHjZgoJ6Cv4gA63--76" source="jL-DoHjZgoJ6Cv4gA63--77" target="jL-DoHjZgoJ6Cv4gA63--92">
          <mxGeometry relative="1" as="geometry" />
        </mxCell>
        <mxCell id="jL-DoHjZgoJ6Cv4gA63--94" style="edgeStyle=none;rounded=0;orthogonalLoop=1;jettySize=auto;html=1;exitX=1;exitY=0.5;exitDx=0;exitDy=0;entryX=0;entryY=0.5;entryDx=0;entryDy=0;fontFamily=Times New Roman;fontSize=2;endArrow=none;endFill=0;strokeColor=#808080;" edge="1" parent="jL-DoHjZgoJ6Cv4gA63--76" source="jL-DoHjZgoJ6Cv4gA63--80" target="jL-DoHjZgoJ6Cv4gA63--92">
          <mxGeometry relative="1" as="geometry" />
        </mxCell>
        <mxCell id="jL-DoHjZgoJ6Cv4gA63--95" style="edgeStyle=none;rounded=0;orthogonalLoop=1;jettySize=auto;html=1;exitX=1;exitY=0.5;exitDx=0;exitDy=0;entryX=0;entryY=0.5;entryDx=0;entryDy=0;fontFamily=Times New Roman;fontSize=2;endArrow=none;endFill=0;strokeColor=#808080;" edge="1" parent="jL-DoHjZgoJ6Cv4gA63--76" source="jL-DoHjZgoJ6Cv4gA63--81" target="jL-DoHjZgoJ6Cv4gA63--92">
          <mxGeometry relative="1" as="geometry" />
        </mxCell>
        <mxCell id="jL-DoHjZgoJ6Cv4gA63--96" value="" style="rounded=0;whiteSpace=wrap;html=1;fontFamily=Times New Roman;fontSize=2;strokeColor=#808080;rotation=-90;" vertex="1" parent="jL-DoHjZgoJ6Cv4gA63--76">
          <mxGeometry x="65" y="25" width="20" height="20" as="geometry" />
        </mxCell>
        <mxCell id="jL-DoHjZgoJ6Cv4gA63--97" style="edgeStyle=none;rounded=0;orthogonalLoop=1;jettySize=auto;html=1;entryX=0;entryY=0.5;entryDx=0;entryDy=0;fontFamily=Times New Roman;fontSize=2;endArrow=none;endFill=0;exitX=1;exitY=0.5;exitDx=0;exitDy=0;strokeColor=#808080;" edge="1" parent="jL-DoHjZgoJ6Cv4gA63--76" source="jL-DoHjZgoJ6Cv4gA63--77" target="jL-DoHjZgoJ6Cv4gA63--96">
          <mxGeometry relative="1" as="geometry" />
        </mxCell>
        <mxCell id="jL-DoHjZgoJ6Cv4gA63--98" style="edgeStyle=none;rounded=0;orthogonalLoop=1;jettySize=auto;html=1;exitX=1;exitY=0.5;exitDx=0;exitDy=0;entryX=0;entryY=0.5;entryDx=0;entryDy=0;fontFamily=Times New Roman;fontSize=2;endArrow=none;endFill=0;strokeColor=#808080;" edge="1" parent="jL-DoHjZgoJ6Cv4gA63--76" source="jL-DoHjZgoJ6Cv4gA63--79" target="jL-DoHjZgoJ6Cv4gA63--96">
          <mxGeometry relative="1" as="geometry" />
        </mxCell>
        <mxCell id="jL-DoHjZgoJ6Cv4gA63--99" style="edgeStyle=none;rounded=0;orthogonalLoop=1;jettySize=auto;html=1;exitX=1;exitY=0.5;exitDx=0;exitDy=0;entryX=0;entryY=0.5;entryDx=0;entryDy=0;fontFamily=Times New Roman;fontSize=2;endArrow=none;endFill=0;strokeColor=#808080;" edge="1" parent="jL-DoHjZgoJ6Cv4gA63--76" source="jL-DoHjZgoJ6Cv4gA63--80" target="jL-DoHjZgoJ6Cv4gA63--96">
          <mxGeometry relative="1" as="geometry" />
        </mxCell>
        <mxCell id="jL-DoHjZgoJ6Cv4gA63--100" style="edgeStyle=none;rounded=0;orthogonalLoop=1;jettySize=auto;html=1;exitX=1;exitY=0.5;exitDx=0;exitDy=0;entryX=0;entryY=0.5;entryDx=0;entryDy=0;fontFamily=Times New Roman;fontSize=2;endArrow=none;endFill=0;strokeColor=#808080;" edge="1" parent="jL-DoHjZgoJ6Cv4gA63--76" source="jL-DoHjZgoJ6Cv4gA63--81" target="jL-DoHjZgoJ6Cv4gA63--96">
          <mxGeometry relative="1" as="geometry" />
        </mxCell>
        <mxCell id="jL-DoHjZgoJ6Cv4gA63--101" style="edgeStyle=none;rounded=0;orthogonalLoop=1;jettySize=auto;html=1;entryX=1;entryY=0.5;entryDx=0;entryDy=0;fontFamily=Times New Roman;fontSize=2;endArrow=none;endFill=0;strokeColor=#808080;" edge="1" parent="jL-DoHjZgoJ6Cv4gA63--76" source="jL-DoHjZgoJ6Cv4gA63--77" target="jL-DoHjZgoJ6Cv4gA63--77">
          <mxGeometry relative="1" as="geometry" />
        </mxCell>
        <mxCell id="jL-DoHjZgoJ6Cv4gA63--102" style="edgeStyle=none;rounded=0;orthogonalLoop=1;jettySize=auto;html=1;exitX=0;exitY=0.5;exitDx=0;exitDy=0;entryX=1;entryY=0.5;entryDx=0;entryDy=0;strokeColor=#808080;fontSize=1;fontColor=#999999;endArrow=none;endFill=0;fontFamily=Times New Roman;" edge="1" parent="jL-DoHjZgoJ6Cv4gA63--75" source="jL-DoHjZgoJ6Cv4gA63--106" target="jL-DoHjZgoJ6Cv4gA63--81">
          <mxGeometry relative="1" as="geometry" />
        </mxCell>
        <mxCell id="jL-DoHjZgoJ6Cv4gA63--103" style="edgeStyle=none;rounded=0;orthogonalLoop=1;jettySize=auto;html=1;exitX=0;exitY=0.5;exitDx=0;exitDy=0;entryX=1;entryY=0.5;entryDx=0;entryDy=0;strokeColor=#808080;fontSize=1;fontColor=#999999;endArrow=none;endFill=0;fontFamily=Times New Roman;" edge="1" parent="jL-DoHjZgoJ6Cv4gA63--75" source="jL-DoHjZgoJ6Cv4gA63--106" target="jL-DoHjZgoJ6Cv4gA63--80">
          <mxGeometry relative="1" as="geometry" />
        </mxCell>
        <mxCell id="jL-DoHjZgoJ6Cv4gA63--104" style="edgeStyle=none;rounded=0;orthogonalLoop=1;jettySize=auto;html=1;entryX=1;entryY=0.5;entryDx=0;entryDy=0;strokeColor=#808080;fontSize=1;fontColor=#999999;endArrow=none;endFill=0;exitX=0;exitY=0.5;exitDx=0;exitDy=0;fontFamily=Times New Roman;" edge="1" parent="jL-DoHjZgoJ6Cv4gA63--75" source="jL-DoHjZgoJ6Cv4gA63--106" target="jL-DoHjZgoJ6Cv4gA63--79">
          <mxGeometry relative="1" as="geometry" />
        </mxCell>
        <mxCell id="jL-DoHjZgoJ6Cv4gA63--105" style="edgeStyle=none;rounded=0;orthogonalLoop=1;jettySize=auto;html=1;entryX=1;entryY=0.5;entryDx=0;entryDy=0;strokeColor=#808080;fontSize=1;fontColor=#999999;endArrow=none;endFill=0;exitX=0;exitY=0.5;exitDx=0;exitDy=0;fontFamily=Times New Roman;" edge="1" parent="jL-DoHjZgoJ6Cv4gA63--75" source="jL-DoHjZgoJ6Cv4gA63--106" target="jL-DoHjZgoJ6Cv4gA63--77">
          <mxGeometry relative="1" as="geometry" />
        </mxCell>
        <mxCell id="jL-DoHjZgoJ6Cv4gA63--106" value="" style="rounded=0;whiteSpace=wrap;html=1;fontFamily=Times New Roman;fontSize=2;strokeColor=#808080;rotation=-90;" vertex="1" parent="jL-DoHjZgoJ6Cv4gA63--75">
          <mxGeometry x="122.75" width="20" height="20" as="geometry" />
        </mxCell>
        <mxCell id="jL-DoHjZgoJ6Cv4gA63--107" value="" style="rounded=0;whiteSpace=wrap;html=1;fontFamily=Times New Roman;fontSize=2;strokeColor=#808080;rotation=-90;" vertex="1" parent="jL-DoHjZgoJ6Cv4gA63--75">
          <mxGeometry x="122.75" y="40" width="20" height="20" as="geometry" />
        </mxCell>
        <mxCell id="jL-DoHjZgoJ6Cv4gA63--108" style="rounded=0;orthogonalLoop=1;jettySize=auto;html=1;strokeColor=#808080;fontSize=1;fontColor=#999999;entryX=1;entryY=0.5;entryDx=0;entryDy=0;exitX=0;exitY=0.5;exitDx=0;exitDy=0;endArrow=none;endFill=0;fontFamily=Times New Roman;" edge="1" parent="jL-DoHjZgoJ6Cv4gA63--75" source="jL-DoHjZgoJ6Cv4gA63--96" target="jL-DoHjZgoJ6Cv4gA63--107">
          <mxGeometry relative="1" as="geometry">
            <mxPoint x="127.25" y="38" as="targetPoint" />
          </mxGeometry>
        </mxCell>
        <mxCell id="jL-DoHjZgoJ6Cv4gA63--109" style="edgeStyle=none;rounded=0;orthogonalLoop=1;jettySize=auto;html=1;entryX=1;entryY=0.5;entryDx=0;entryDy=0;strokeColor=#808080;fontSize=1;fontColor=#999999;endArrow=none;endFill=0;exitX=0;exitY=0.5;exitDx=0;exitDy=0;fontFamily=Times New Roman;" edge="1" parent="jL-DoHjZgoJ6Cv4gA63--75" source="jL-DoHjZgoJ6Cv4gA63--82" target="jL-DoHjZgoJ6Cv4gA63--107">
          <mxGeometry relative="1" as="geometry">
            <mxPoint x="37.25" y="-2" as="sourcePoint" />
          </mxGeometry>
        </mxCell>
        <mxCell id="jL-DoHjZgoJ6Cv4gA63--110" style="edgeStyle=none;rounded=0;orthogonalLoop=1;jettySize=auto;html=1;entryX=1;entryY=0.5;entryDx=0;entryDy=0;strokeColor=#808080;fontSize=1;fontColor=#999999;endArrow=none;endFill=0;exitX=0;exitY=0.5;exitDx=0;exitDy=0;fontFamily=Times New Roman;" edge="1" parent="jL-DoHjZgoJ6Cv4gA63--75" source="jL-DoHjZgoJ6Cv4gA63--87" target="jL-DoHjZgoJ6Cv4gA63--107">
          <mxGeometry relative="1" as="geometry" />
        </mxCell>
        <mxCell id="jL-DoHjZgoJ6Cv4gA63--111" style="edgeStyle=none;rounded=0;orthogonalLoop=1;jettySize=auto;html=1;entryX=1;entryY=0.5;entryDx=0;entryDy=0;strokeColor=#808080;fontSize=1;fontColor=#999999;endArrow=none;endFill=0;exitX=0;exitY=0.5;exitDx=0;exitDy=0;fontFamily=Times New Roman;" edge="1" parent="jL-DoHjZgoJ6Cv4gA63--75" source="jL-DoHjZgoJ6Cv4gA63--92" target="jL-DoHjZgoJ6Cv4gA63--107">
          <mxGeometry relative="1" as="geometry" />
        </mxCell>
        <mxCell id="jL-DoHjZgoJ6Cv4gA63--112" style="edgeStyle=none;rounded=0;orthogonalLoop=1;jettySize=auto;html=1;entryX=0.93;entryY=0.515;entryDx=0;entryDy=0;entryPerimeter=0;strokeColor=#808080;fontSize=1;fontColor=#999999;endArrow=none;endFill=0;fontFamily=Times New Roman;" edge="1" parent="jL-DoHjZgoJ6Cv4gA63--75" source="jL-DoHjZgoJ6Cv4gA63--106" target="jL-DoHjZgoJ6Cv4gA63--107">
          <mxGeometry relative="1" as="geometry" />
        </mxCell>
        <mxCell id="jL-DoHjZgoJ6Cv4gA63--113" style="edgeStyle=none;rounded=0;orthogonalLoop=1;jettySize=auto;html=1;entryX=1;entryY=0.5;entryDx=0;entryDy=0;strokeColor=#808080;fontSize=1;fontColor=#999999;endArrow=none;endFill=0;exitX=0;exitY=0.5;exitDx=0;exitDy=0;fontFamily=Times New Roman;" edge="1" parent="jL-DoHjZgoJ6Cv4gA63--75" source="jL-DoHjZgoJ6Cv4gA63--96" target="jL-DoHjZgoJ6Cv4gA63--107">
          <mxGeometry relative="1" as="geometry" />
        </mxCell>
        <mxCell id="jL-DoHjZgoJ6Cv4gA63--114" value="Target Encoder" style="rounded=1;whiteSpace=wrap;html=1;fontSize=15;fillColor=#dae8fc;strokeColor=#6c8ebf;strokeWidth=0.5;fillStyle=auto;fontFamily=Times New Roman;opacity=80;" vertex="1" parent="jL-DoHjZgoJ6Cv4gA63--74">
          <mxGeometry width="260" height="75" as="geometry" />
        </mxCell>
        <mxCell id="jL-DoHjZgoJ6Cv4gA63--115" value="Source Encoder" style="rounded=1;whiteSpace=wrap;html=1;fontSize=15;fillColor=#d5e8d4;strokeColor=#82b366;strokeWidth=0.5;fillStyle=auto;fontFamily=Times New Roman;opacity=70;" vertex="1" parent="1">
          <mxGeometry x="-792" y="1378" width="260" height="34" as="geometry" />
        </mxCell>
        <mxCell id="jL-DoHjZgoJ6Cv4gA63--116" value="Source Encoder" style="rounded=1;whiteSpace=wrap;html=1;fontSize=15;fillColor=#dae8fc;strokeColor=#6c8ebf;strokeWidth=0.5;fillStyle=auto;fontFamily=Times New Roman;opacity=70;" vertex="1" parent="1">
          <mxGeometry x="-467" y="1378" width="260" height="34" as="geometry" />
        </mxCell>
        <mxCell id="jL-DoHjZgoJ6Cv4gA63--117" value="&lt;font style=&quot;font-size: 11px;&quot;&gt;Er&lt;/font&gt;" style="rounded=0;whiteSpace=wrap;html=1;fontFamily=Times New Roman;fontSize=11;strokeColor=none;spacingBottom=-10;spacing=-10;spacingTop=-10;" vertex="1" parent="1">
          <mxGeometry x="-791" y="1425.82" width="50" height="12" as="geometry" />
        </mxCell>
        <mxCell id="jL-DoHjZgoJ6Cv4gA63--118" style="edgeStyle=orthogonalEdgeStyle;rounded=0;orthogonalLoop=1;jettySize=auto;html=1;entryX=0.365;entryY=0.995;entryDx=0;entryDy=0;entryPerimeter=0;fontFamily=Times New Roman;endArrow=blockThin;endFill=1;" edge="1" parent="1">
          <mxGeometry relative="1" as="geometry">
            <mxPoint x="-696" y="1432.82" as="sourcePoint" />
            <mxPoint x="-696.0999999999999" y="1412.58" as="targetPoint" />
          </mxGeometry>
        </mxCell>
        <mxCell id="jL-DoHjZgoJ6Cv4gA63--119" style="edgeStyle=orthogonalEdgeStyle;rounded=0;orthogonalLoop=1;jettySize=auto;html=1;entryX=0.634;entryY=1.003;entryDx=0;entryDy=0;entryPerimeter=0;exitX=0.502;exitY=0.053;exitDx=0;exitDy=0;exitPerimeter=0;fontFamily=Times New Roman;endArrow=blockThin;endFill=1;" edge="1" parent="1" source="jL-DoHjZgoJ6Cv4gA63--122">
          <mxGeometry relative="1" as="geometry">
            <mxPoint x="-626" y="1432.82" as="sourcePoint" />
            <mxPoint x="-626.1600000000003" y="1412.9640000000002" as="targetPoint" />
          </mxGeometry>
        </mxCell>
        <mxCell id="jL-DoHjZgoJ6Cv4gA63--120" style="edgeStyle=orthogonalEdgeStyle;rounded=0;orthogonalLoop=1;jettySize=auto;html=1;entryX=0.904;entryY=0.983;entryDx=0;entryDy=0;entryPerimeter=0;fontFamily=Times New Roman;endArrow=blockThin;endFill=1;" edge="1" parent="1">
          <mxGeometry relative="1" as="geometry">
            <mxPoint x="-556" y="1432.82" as="sourcePoint" />
            <mxPoint x="-555.9600000000005" y="1412.0040000000001" as="targetPoint" />
          </mxGeometry>
        </mxCell>
        <mxCell id="jL-DoHjZgoJ6Cv4gA63--121" value="&lt;font style=&quot;font-size: 11px;&quot;&gt;lebt&lt;/font&gt;" style="rounded=0;whiteSpace=wrap;html=1;fontFamily=Times New Roman;fontSize=11;strokeColor=none;spacingBottom=-10;spacing=-10;spacingTop=-10;fontColor=#000000;" vertex="1" parent="1">
          <mxGeometry x="-720.5" y="1425.82" width="50" height="12" as="geometry" />
        </mxCell>
        <mxCell id="jL-DoHjZgoJ6Cv4gA63--122" value="&lt;font style=&quot;font-size: 11px;&quot;&gt;in&lt;/font&gt;" style="rounded=0;whiteSpace=wrap;html=1;fontFamily=Times New Roman;fontSize=11;strokeColor=none;spacingBottom=-10;spacing=-10;spacingTop=-10;fillColor=none;" vertex="1" parent="1">
          <mxGeometry x="-651" y="1425.82" width="50" height="12" as="geometry" />
        </mxCell>
        <mxCell id="jL-DoHjZgoJ6Cv4gA63--123" value="&lt;font style=&quot;font-size: 11px;&quot;&gt;...&lt;/font&gt;" style="rounded=0;whiteSpace=wrap;html=1;fontFamily=Times New Roman;fontSize=11;strokeColor=none;spacingBottom=-10;spacing=-10;spacingTop=-10;" vertex="1" parent="1">
          <mxGeometry x="-581" y="1425.82" width="50" height="12" as="geometry" />
        </mxCell>
        <mxCell id="jL-DoHjZgoJ6Cv4gA63--124" style="edgeStyle=orthogonalEdgeStyle;rounded=0;orthogonalLoop=1;jettySize=auto;html=1;entryX=0.365;entryY=0.995;entryDx=0;entryDy=0;entryPerimeter=0;fontFamily=Times New Roman;endArrow=blockThin;endFill=1;" edge="1" parent="1">
          <mxGeometry relative="1" as="geometry">
            <mxPoint x="-767" y="1425.82" as="sourcePoint" />
            <mxPoint x="-767" y="1412.8200000000002" as="targetPoint" />
          </mxGeometry>
        </mxCell>
        <mxCell id="jL-DoHjZgoJ6Cv4gA63--125" style="edgeStyle=orthogonalEdgeStyle;rounded=0;orthogonalLoop=1;jettySize=auto;html=1;entryX=0;entryY=0.5;entryDx=0;entryDy=0;fontSize=11;endArrow=classic;endFill=1;" edge="1" parent="1" target="jL-DoHjZgoJ6Cv4gA63--137">
          <mxGeometry relative="1" as="geometry">
            <mxPoint x="-524" y="1263" as="sourcePoint" />
            <mxPoint x="-467" y="1366" as="targetPoint" />
            <Array as="points">
              <mxPoint x="-524" y="1366" />
            </Array>
          </mxGeometry>
        </mxCell>
        <mxCell id="jL-DoHjZgoJ6Cv4gA63--126" value="&lt;font face=&quot;Times New Roman&quot; style=&quot;font-size: 11px;&quot;&gt;Negative&lt;br style=&quot;font-size: 11px;&quot;&gt;Sampling&lt;/font&gt;" style="edgeLabel;html=1;align=center;verticalAlign=middle;resizable=0;points=[];fontSize=11;labelBackgroundColor=none;" vertex="1" connectable="0" parent="jL-DoHjZgoJ6Cv4gA63--125">
          <mxGeometry x="0.5195" relative="1" as="geometry">
            <mxPoint x="4" y="-1" as="offset" />
          </mxGeometry>
        </mxCell>
        <mxCell id="jL-DoHjZgoJ6Cv4gA63--127" value="" style="html=1;verticalLabelPosition=bottom;align=center;labelBackgroundColor=#ffffff;verticalAlign=top;strokeWidth=0.5;shadow=0;dashed=0;shape=mxgraph.ios7.icons.document;labelBorderColor=none;fontFamily=Times New Roman;fontSize=12;opacity=80;fillColor=#eeeeee;strokeColor=#36393d;" vertex="1" parent="1">
          <mxGeometry x="-581" y="1173" width="78" height="90" as="geometry" />
        </mxCell>
        <mxCell id="jL-DoHjZgoJ6Cv4gA63--128" value="&lt;font color=&quot;#000000&quot;&gt;po&lt;/font&gt;&lt;font color=&quot;#b3b3b3&quot;&gt;ol&lt;/font&gt;&lt;font color=&quot;#000000&quot;&gt;&amp;nbsp; &amp;nbsp; &amp;nbsp; &amp;nbsp; 0.62&lt;br&gt;po&lt;/font&gt;&lt;font color=&quot;#b3b3b3&quot;&gt;or&lt;/font&gt;&lt;font color=&quot;#000000&quot;&gt;&amp;nbsp; &amp;nbsp; &amp;nbsp; &amp;nbsp; 0.21&lt;/font&gt;&lt;br&gt;&lt;font color=&quot;#b3b3b3&quot;&gt;beauty&amp;nbsp;&lt;/font&gt;&lt;font color=&quot;#000000&quot;&gt;&amp;nbsp; &amp;nbsp; 0.00&lt;br&gt;...&amp;nbsp; &amp;nbsp; &amp;nbsp; &amp;nbsp; &amp;nbsp; &amp;nbsp; &amp;nbsp;...&lt;br&gt;&lt;/font&gt;" style="rounded=0;whiteSpace=wrap;html=1;labelBorderColor=none;strokeColor=none;strokeWidth=1;fontFamily=Times New Roman;fontSize=12;fontColor=#FF0000;fillColor=none;opacity=80;align=left;" vertex="1" parent="1">
          <mxGeometry x="-578" y="1202.5" width="80" height="58" as="geometry" />
        </mxCell>
        <mxCell id="jL-DoHjZgoJ6Cv4gA63--129" value="Vocab.&amp;nbsp; &amp;nbsp; Prob." style="text;html=1;align=left;verticalAlign=middle;resizable=0;points=[];autosize=1;strokeColor=none;fillColor=none;fontSize=12;fontFamily=Times New Roman;fontColor=#000000;" vertex="1" parent="1">
          <mxGeometry x="-579" y="1180.5" width="90" height="30" as="geometry" />
        </mxCell>
        <mxCell id="jL-DoHjZgoJ6Cv4gA63--130" value="&lt;span style=&quot;background-color: initial; font-size: 11px;&quot;&gt;“&lt;u&gt;po&lt;/u&gt;”&lt;/span&gt;" style="text;html=1;align=left;verticalAlign=middle;resizable=0;points=[];autosize=1;strokeColor=none;fillColor=none;fontSize=11;fontFamily=Times New Roman;" vertex="1" parent="1">
          <mxGeometry x="-671.5" y="1210.63" width="50" height="30" as="geometry" />
        </mxCell>
        <mxCell id="jL-DoHjZgoJ6Cv4gA63--131" value="" style="endArrow=none;html=1;rounded=0;fontSize=10;fontColor=#000000;fontFamily=Times New Roman;" edge="1" parent="1">
          <mxGeometry width="50" height="50" relative="1" as="geometry">
            <mxPoint x="-661" y="1221" as="sourcePoint" />
            <mxPoint x="-661" y="1197" as="targetPoint" />
          </mxGeometry>
        </mxCell>
        <mxCell id="jL-DoHjZgoJ6Cv4gA63--132" value="Post-Filtering" style="text;html=1;align=center;verticalAlign=middle;resizable=0;points=[];autosize=1;strokeColor=none;fillColor=none;fontSize=11;fontColor=#000000;fontFamily=Times New Roman;" vertex="1" parent="1">
          <mxGeometry x="-670" y="1173" width="90" height="30" as="geometry" />
        </mxCell>
        <mxCell id="jL-DoHjZgoJ6Cv4gA63--133" style="edgeStyle=orthogonalEdgeStyle;rounded=0;orthogonalLoop=1;jettySize=auto;html=1;exitX=0;exitY=0.5;exitDx=0;exitDy=0;entryX=0;entryY=0.5;entryDx=0;entryDy=0;fontFamily=Times New Roman;fontSize=10;fontColor=#000000;endArrow=ERzeroToMany;endFill=0;fillColor=#d5e8d4;strokeColor=#82b366;" edge="1" parent="1" source="jL-DoHjZgoJ6Cv4gA63--70" target="jL-DoHjZgoJ6Cv4gA63--115">
          <mxGeometry relative="1" as="geometry" />
        </mxCell>
        <mxCell id="jL-DoHjZgoJ6Cv4gA63--134" value="Cross-lingual&lt;br&gt;Attention" style="edgeLabel;html=1;align=center;verticalAlign=middle;resizable=0;points=[];fontSize=11;rotation=-90;labelBackgroundColor=none;" vertex="1" connectable="0" parent="jL-DoHjZgoJ6Cv4gA63--133">
          <mxGeometry x="-0.0062" y="1" relative="1" as="geometry">
            <mxPoint x="-2" as="offset" />
          </mxGeometry>
        </mxCell>
        <mxCell id="jL-DoHjZgoJ6Cv4gA63--135" style="edgeStyle=orthogonalEdgeStyle;rounded=0;orthogonalLoop=1;jettySize=auto;html=1;exitX=1;exitY=0.5;exitDx=0;exitDy=0;entryX=1;entryY=0.5;entryDx=0;entryDy=0;fontFamily=Times New Roman;fontSize=10;fontColor=#000000;endArrow=ERzeroToMany;endFill=0;fillColor=#dae8fc;strokeColor=#6c8ebf;" edge="1" parent="1" source="jL-DoHjZgoJ6Cv4gA63--114" target="jL-DoHjZgoJ6Cv4gA63--116">
          <mxGeometry relative="1" as="geometry" />
        </mxCell>
        <mxCell id="jL-DoHjZgoJ6Cv4gA63--136" value="Cross-lingual&lt;br&gt;Attention" style="edgeLabel;html=1;align=center;verticalAlign=middle;resizable=0;points=[];fontSize=11;rotation=90;labelBackgroundColor=none;" vertex="1" connectable="0" parent="jL-DoHjZgoJ6Cv4gA63--135">
          <mxGeometry x="0.0076" y="2" relative="1" as="geometry">
            <mxPoint as="offset" />
          </mxGeometry>
        </mxCell>
        <mxCell id="jL-DoHjZgoJ6Cv4gA63--137" value="&lt;font style=&quot;font-size: 11px;&quot;&gt;He&lt;/font&gt;" style="rounded=0;whiteSpace=wrap;html=1;fontFamily=Times New Roman;fontSize=11;strokeColor=none;spacingBottom=-10;spacing=-10;spacingTop=-10;fillColor=none;" vertex="1" parent="1">
          <mxGeometry x="-463" y="1360" width="50" height="12" as="geometry" />
        </mxCell>
        <mxCell id="jL-DoHjZgoJ6Cv4gA63--138" style="edgeStyle=orthogonalEdgeStyle;rounded=0;orthogonalLoop=1;jettySize=auto;html=1;entryX=0.365;entryY=0.995;entryDx=0;entryDy=0;entryPerimeter=0;fontFamily=Times New Roman;endArrow=blockThin;endFill=1;" edge="1" parent="1">
          <mxGeometry relative="1" as="geometry">
            <mxPoint x="-368" y="1367" as="sourcePoint" />
            <mxPoint x="-368.0999999999999" y="1346.7600000000002" as="targetPoint" />
          </mxGeometry>
        </mxCell>
        <mxCell id="jL-DoHjZgoJ6Cv4gA63--139" style="edgeStyle=orthogonalEdgeStyle;rounded=0;orthogonalLoop=1;jettySize=auto;html=1;entryX=0.634;entryY=1.003;entryDx=0;entryDy=0;entryPerimeter=0;exitX=0.502;exitY=0.053;exitDx=0;exitDy=0;exitPerimeter=0;fontFamily=Times New Roman;endArrow=blockThin;endFill=1;" edge="1" parent="1" source="jL-DoHjZgoJ6Cv4gA63--142">
          <mxGeometry relative="1" as="geometry">
            <mxPoint x="-298" y="1367" as="sourcePoint" />
            <mxPoint x="-298.1600000000003" y="1347.1440000000002" as="targetPoint" />
          </mxGeometry>
        </mxCell>
        <mxCell id="jL-DoHjZgoJ6Cv4gA63--140" style="edgeStyle=orthogonalEdgeStyle;rounded=0;orthogonalLoop=1;jettySize=auto;html=1;entryX=0.904;entryY=0.983;entryDx=0;entryDy=0;entryPerimeter=0;fontFamily=Times New Roman;endArrow=blockThin;endFill=1;" edge="1" parent="1">
          <mxGeometry relative="1" as="geometry">
            <mxPoint x="-228" y="1360" as="sourcePoint" />
            <mxPoint x="-227.96000000000072" y="1347.1840000000002" as="targetPoint" />
          </mxGeometry>
        </mxCell>
        <mxCell id="jL-DoHjZgoJ6Cv4gA63--141" value="&lt;font color=&quot;#ff0000&quot; style=&quot;font-size: 11px;&quot;&gt;pool&lt;/font&gt;" style="rounded=0;whiteSpace=wrap;html=1;fontFamily=Times New Roman;fontSize=11;strokeColor=none;spacingBottom=-10;spacing=-10;spacingTop=-10;fontStyle=1" vertex="1" parent="1">
          <mxGeometry x="-392.5" y="1360" width="50" height="12" as="geometry" />
        </mxCell>
        <mxCell id="jL-DoHjZgoJ6Cv4gA63--142" value="&lt;font style=&quot;font-size: 11px;&quot;&gt;village&lt;/font&gt;" style="rounded=0;whiteSpace=wrap;html=1;fontFamily=Times New Roman;fontSize=11;strokeColor=none;spacingBottom=-10;spacing=-10;spacingTop=-10;fillColor=none;" vertex="1" parent="1">
          <mxGeometry x="-323" y="1360" width="50" height="12" as="geometry" />
        </mxCell>
        <mxCell id="jL-DoHjZgoJ6Cv4gA63--143" style="edgeStyle=orthogonalEdgeStyle;rounded=0;orthogonalLoop=1;jettySize=auto;html=1;entryX=0.365;entryY=0.995;entryDx=0;entryDy=0;entryPerimeter=0;fontFamily=Times New Roman;endArrow=blockThin;endFill=1;" edge="1" parent="1">
          <mxGeometry relative="1" as="geometry">
            <mxPoint x="-439" y="1360" as="sourcePoint" />
            <mxPoint x="-439" y="1347.0000000000002" as="targetPoint" />
          </mxGeometry>
        </mxCell>
        <mxCell id="jL-DoHjZgoJ6Cv4gA63--144" value="&lt;font style=&quot;font-size: 11px;&quot;&gt;Er&lt;/font&gt;" style="rounded=0;whiteSpace=wrap;html=1;fontFamily=Times New Roman;fontSize=11;strokeColor=none;spacingBottom=-10;spacing=-10;spacingTop=-10;" vertex="1" parent="1">
          <mxGeometry x="-463" y="1425.82" width="50" height="12" as="geometry" />
        </mxCell>
        <mxCell id="jL-DoHjZgoJ6Cv4gA63--145" style="edgeStyle=orthogonalEdgeStyle;rounded=0;orthogonalLoop=1;jettySize=auto;html=1;entryX=0.365;entryY=0.995;entryDx=0;entryDy=0;entryPerimeter=0;fontFamily=Times New Roman;endArrow=blockThin;endFill=1;" edge="1" parent="1">
          <mxGeometry relative="1" as="geometry">
            <mxPoint x="-368" y="1432.82" as="sourcePoint" />
            <mxPoint x="-368.0999999999999" y="1412.58" as="targetPoint" />
          </mxGeometry>
        </mxCell>
        <mxCell id="jL-DoHjZgoJ6Cv4gA63--146" style="edgeStyle=orthogonalEdgeStyle;rounded=0;orthogonalLoop=1;jettySize=auto;html=1;entryX=0.634;entryY=1.003;entryDx=0;entryDy=0;entryPerimeter=0;exitX=0.502;exitY=0.053;exitDx=0;exitDy=0;exitPerimeter=0;fontFamily=Times New Roman;endArrow=blockThin;endFill=1;" edge="1" parent="1" source="jL-DoHjZgoJ6Cv4gA63--149">
          <mxGeometry relative="1" as="geometry">
            <mxPoint x="-298" y="1432.82" as="sourcePoint" />
            <mxPoint x="-298.1600000000003" y="1412.9640000000002" as="targetPoint" />
          </mxGeometry>
        </mxCell>
        <mxCell id="jL-DoHjZgoJ6Cv4gA63--147" style="edgeStyle=orthogonalEdgeStyle;rounded=0;orthogonalLoop=1;jettySize=auto;html=1;entryX=0.904;entryY=0.983;entryDx=0;entryDy=0;entryPerimeter=0;fontFamily=Times New Roman;endArrow=blockThin;endFill=1;" edge="1" parent="1">
          <mxGeometry relative="1" as="geometry">
            <mxPoint x="-228" y="1432.82" as="sourcePoint" />
            <mxPoint x="-227.96000000000072" y="1412.0040000000001" as="targetPoint" />
          </mxGeometry>
        </mxCell>
        <mxCell id="jL-DoHjZgoJ6Cv4gA63--148" value="&lt;font style=&quot;font-size: 11px;&quot;&gt;lebt&lt;/font&gt;" style="rounded=0;whiteSpace=wrap;html=1;fontFamily=Times New Roman;fontSize=11;strokeColor=none;spacingBottom=-10;spacing=-10;spacingTop=-10;fontColor=#000000;" vertex="1" parent="1">
          <mxGeometry x="-392.5" y="1425.82" width="50" height="12" as="geometry" />
        </mxCell>
        <mxCell id="jL-DoHjZgoJ6Cv4gA63--149" value="&lt;font style=&quot;font-size: 11px;&quot;&gt;in&lt;/font&gt;" style="rounded=0;whiteSpace=wrap;html=1;fontFamily=Times New Roman;fontSize=11;strokeColor=none;spacingBottom=-10;spacing=-10;spacingTop=-10;fillColor=none;" vertex="1" parent="1">
          <mxGeometry x="-323" y="1425.82" width="50" height="12" as="geometry" />
        </mxCell>
        <mxCell id="jL-DoHjZgoJ6Cv4gA63--150" value="&lt;font style=&quot;font-size: 11px;&quot;&gt;...&lt;/font&gt;" style="rounded=0;whiteSpace=wrap;html=1;fontFamily=Times New Roman;fontSize=11;strokeColor=none;spacingBottom=-10;spacing=-10;spacingTop=-10;" vertex="1" parent="1">
          <mxGeometry x="-253" y="1425.82" width="50" height="12" as="geometry" />
        </mxCell>
        <mxCell id="jL-DoHjZgoJ6Cv4gA63--151" style="edgeStyle=orthogonalEdgeStyle;rounded=0;orthogonalLoop=1;jettySize=auto;html=1;entryX=0.365;entryY=0.995;entryDx=0;entryDy=0;entryPerimeter=0;fontFamily=Times New Roman;endArrow=blockThin;endFill=1;" edge="1" parent="1">
          <mxGeometry relative="1" as="geometry">
            <mxPoint x="-439" y="1425.82" as="sourcePoint" />
            <mxPoint x="-439" y="1412.8200000000002" as="targetPoint" />
          </mxGeometry>
        </mxCell>
        <mxCell id="jL-DoHjZgoJ6Cv4gA63--152" value="" style="endArrow=none;html=1;rounded=0;fontFamily=Times New Roman;fontSize=10;fontColor=#000000;" edge="1" parent="1">
          <mxGeometry width="50" height="50" relative="1" as="geometry">
            <mxPoint x="-577" y="1203.65" as="sourcePoint" />
            <mxPoint x="-507.5" y="1203.65" as="targetPoint" />
          </mxGeometry>
        </mxCell>
        <mxCell id="jL-DoHjZgoJ6Cv4gA63--153" value="&lt;font style=&quot;font-size: 11px;&quot;&gt;.&lt;/font&gt;" style="rounded=0;whiteSpace=wrap;html=1;fontFamily=Times New Roman;fontSize=11;strokeColor=none;spacingBottom=-10;spacing=-10;spacingTop=-10;" vertex="1" parent="1">
          <mxGeometry x="-253" y="1360" width="50" height="12" as="geometry" />
        </mxCell>
        <mxCell id="jL-DoHjZgoJ6Cv4gA63--154" value="Embedding Matrix" style="text;html=1;align=center;verticalAlign=middle;resizable=0;points=[];autosize=1;strokeColor=none;fillColor=none;fontSize=11;fontColor=#000000;fontFamily=Times New Roman;spacingTop=-10;spacingBottom=-10;" vertex="1" parent="1">
          <mxGeometry x="-831" y="1178" width="110" as="geometry" />
        </mxCell>
        <mxCell id="jL-DoHjZgoJ6Cv4gA63--155" value="(a)&amp;nbsp; Generation Procedure" style="rounded=0;whiteSpace=wrap;html=1;fontFamily=Times New Roman;fontSize=11;strokeColor=none;spacingBottom=-10;spacing=-10;spacingTop=-10;fontColor=#000000;" vertex="1" parent="1">
          <mxGeometry x="-730" y="1442" width="125" height="12" as="geometry" />
        </mxCell>
        <mxCell id="jL-DoHjZgoJ6Cv4gA63--156" value="(b)&amp;nbsp; Reranking Procedure" style="rounded=0;whiteSpace=wrap;html=1;fontFamily=Times New Roman;fontSize=11;strokeColor=none;spacingBottom=-10;spacing=-10;spacingTop=-10;fontColor=#000000;" vertex="1" parent="1">
          <mxGeometry x="-393.5" y="1443" width="125" height="12" as="geometry" />
        </mxCell>
      </root>
    </mxGraphModel>
  </diagram>
</mxfile>
